<?xml version="1.0" standalone="no"?>
<!DOCTYPE svg PUBLIC "-//W3C//DTD SVG 20010904//EN"
 "http://www.w3.org/TR/2001/REC-SVG-20010904/DTD/svg10.dtd">
<svg version="1.0" xmlns="http://www.w3.org/2000/svg"
 width="1024.000000pt" height="1024.000000pt" viewBox="0 0 1024.000000 1024.000000"
 preserveAspectRatio="xMidYMid meet">
<metadata>
Created by potrace 1.16, written by Peter Selinger 2001-2019
</metadata>
<g transform="translate(0.000000,1024.000000) scale(0.100000,-0.100000)"
fill="#000000" stroke="none">
<path d="M5026 6025 c-31 -11 -170 -144 -643 -617 -331 -332 -610 -604 -620
-605 -10 -2 -13 0 -6 3 16 7 -5 54 -24 54 -19 0 -16 17 4 24 12 5 14 9 5 18
-14 14 -44 20 -36 7 3 -5 9 -7 14 -4 5 3 11 1 15 -5 4 -7 -12 -8 -49 -4 -36 4
-61 3 -69 -5 -8 -6 -17 -7 -22 -3 -4 4 -6 -3 -3 -14 4 -17 2 -20 -13 -17 -10
3 -17 8 -15 12 3 4 1 13 -5 21 -7 13 -9 12 -9 -2 0 -11 -7 -16 -20 -15 -20 1
-29 17 -9 17 5 0 7 5 4 10 -4 6 -10 8 -14 6 -15 -10 -10 55 7 84 11 16 75 90
144 163 187 198 426 467 415 467 -2 0 -60 -62 -127 -137 -68 -76 -191 -209
-274 -297 -83 -87 -159 -170 -168 -185 -22 -32 -23 -102 -3 -141 8 -15 30 -38
48 -49 l34 -21 1529 0 c1498 0 1530 0 1561 20 59 36 84 104 60 161 -8 19 -88
113 -177 209 -196 210 -359 392 -499 558 -57 67 -106 122 -109 122 -3 0 2 -8
10 -17 8 -10 57 -68 109 -129 52 -61 117 -137 144 -170 73 -85 309 -347 328
-363 9 -7 17 -17 17 -22 0 -5 18 -25 40 -45 22 -20 40 -43 40 -52 0 -8 3 -12
7 -9 12 12 32 -27 21 -40 -13 -16 4 -17 20 -1 9 9 12 8 12 -4 0 -8 7 -21 15
-28 8 -7 15 -17 15 -23 0 -7 -4 -7 -12 1 -7 7 -19 12 -27 12 -13 -1 -12 -4 3
-15 11 -8 15 -15 9 -15 -7 0 -15 4 -18 10 -3 5 -17 9 -30 8 -13 -1 -21 -6 -19
-10 7 -11 2 -10 -40 7 -32 14 -39 13 -38 -5 0 -3 -13 -5 -29 -5 -16 0 -29 5
-29 12 0 7 -7 10 -16 6 -10 -3 -14 -14 -12 -27 4 -18 0 -21 -20 -20 -16 0 -28
9 -33 22 -9 25 -36 30 -36 7 0 -8 6 -15 14 -15 7 0 13 -10 13 -22 -1 -21 -2
-22 -14 -5 -20 26 -29 20 -11 -7 18 -27 47 -43 39 -22 -3 8 -1 17 4 20 5 3 10
-6 10 -19 0 -14 -5 -25 -11 -25 -5 0 -2 -9 8 -20 10 -11 13 -20 7 -20 -6 0
-275 268 -599 595 -534 540 -593 597 -641 615 -61 23 -121 25 -176 5z"/>
<path d="M2049 4363 c-6 -16 -85 -228 -175 -473 -91 -245 -180 -485 -199 -535
l-33 -90 105 -3 c58 -1 107 -1 109 1 3 2 26 64 52 138 l47 134 224 0 223 0 48
-133 c26 -73 50 -135 52 -138 3 -2 55 -3 115 -2 l109 3 -163 420 c-90 231
-188 484 -219 563 l-56 142 -114 0 -114 0 -11 -27z m210 -422 c40 -115 70
-214 66 -220 -7 -12 -287 -16 -298 -5 -5 5 24 91 130 392 8 23 18 42 21 42 4
0 40 -94 81 -209z"/>
<path d="M6940 4194 l0 -196 -42 37 c-116 99 -324 83 -451 -34 -173 -160 -170
-508 6 -666 67 -61 142 -88 242 -89 95 0 159 24 218 82 l37 36 0 -52 0 -52
100 0 100 0 0 565 0 565 -105 0 -105 0 0 -196z m-91 -298 c111 -58 137 -296
44 -407 -75 -89 -223 -90 -305 -3 -75 80 -79 265 -7 365 51 72 175 93 268 45z"/>
<path d="M7360 3825 l0 -565 105 0 105 0 0 565 0 565 -105 0 -105 0 0 -565z"/>
<path d="M3019 4084 c-75 -23 -140 -74 -172 -135 -26 -48 -28 -62 -25 -131 3
-68 6 -80 34 -114 42 -53 106 -82 241 -110 64 -13 127 -31 140 -39 36 -24 48
-58 34 -92 -16 -38 -43 -54 -106 -60 -75 -8 -136 21 -161 76 -21 46 -10 44
-145 15 l-67 -15 16 -42 c24 -62 106 -140 174 -165 150 -56 329 -30 426 62
120 113 101 303 -38 372 -25 12 -93 31 -151 42 -129 25 -175 43 -190 76 -54
117 183 164 241 48 12 -26 20 -31 40 -27 14 2 58 7 98 10 44 4 72 11 72 19 -1
20 -41 101 -63 125 -33 36 -88 68 -147 85 -66 20 -189 20 -251 0z"/>
<path d="M3877 4084 c-113 -35 -203 -119 -249 -231 -19 -50 -23 -76 -23 -184
0 -125 0 -125 38 -201 81 -166 244 -249 429 -220 131 20 240 97 294 209 15 30
25 55 23 56 -2 2 -44 13 -94 25 -81 19 -91 20 -100 5 -65 -102 -85 -116 -173
-121 -82 -4 -122 14 -168 75 -79 104 -65 300 26 377 45 38 75 48 139 47 66 0
123 -34 148 -86 9 -19 23 -35 31 -35 15 0 175 40 180 45 5 5 -39 87 -65 122
-34 44 -119 99 -182 117 -68 20 -190 19 -254 0z"/>
<path d="M4777 4090 c-181 -46 -297 -207 -297 -415 0 -190 97 -344 257 -406
47 -18 77 -22 158 -22 110 0 156 13 238 65 45 29 117 118 117 144 0 6 -38 19
-85 28 l-85 17 -26 -31 c-41 -48 -80 -64 -159 -64 -57 -1 -77 3 -108 23 -52
32 -86 87 -94 149 l-6 52 297 0 296 0 0 58 c0 169 -88 315 -228 380 -46 21
-75 27 -147 29 -49 1 -107 -2 -128 -7z m180 -166 c53 -10 113 -89 113 -149 l0
-25 -191 0 -191 0 7 28 c31 126 119 175 262 146z"/>
<path d="M5764 4080 c-29 -11 -73 -40 -98 -64 l-46 -42 0 53 0 53 -95 0 -95 0
0 -183 c0 -101 -3 -286 -7 -410 l-6 -227 106 0 107 0 0 258 c0 279 5 308 61
359 72 66 208 55 263 -20 20 -27 21 -44 24 -313 l3 -284 100 0 100 0 -3 323
c-3 308 -4 324 -25 362 -28 52 -77 102 -127 128 -60 31 -193 34 -262 7z"/>
<path d="M7852 3678 l170 -402 -62 -151 c-34 -82 -64 -158 -67 -168 -5 -16 2
-18 92 -15 l97 3 169 415 c93 228 198 484 233 568 l64 153 -106 -3 -106 -3
-106 -268 -106 -269 -111 269 -110 268 -110 3 -111 3 170 -403z"/>
</g>
</svg>
